<?xml version="1.0" encoding="UTF-8"?>
<svg id="Layer_1" data-name="Layer 1" xmlns="http://www.w3.org/2000/svg" viewBox="0 0 1021.24 1055.62">
  <defs>
    <style>
      .cls-1 {
        stroke: #31103d;
        stroke-miterlimit: 10;
        stroke-width: 25px;
      }

      .cls-1, .cls-2, .cls-3 {
        fill: #31103d;
      }

      .cls-2 {
        font-family: ChunkFiveEx, 'ChunkFive Ex';
        font-size: 181.45px;
      }

      .cls-4 {
        fill: #bd73b0;
      }

      .cls-5 {
        fill: #ffd79e;
      }

      .cls-6 {
        fill: #a6509f;
      }
    </style>
  </defs>
  <rect class="cls-6" width="1020.47" height="1020.47"/>
  <path class="cls-5" d="M1.24,1020.56H1021.24v-186.12c-87.43-43.89-265.85-119.14-503.72-120.3-245.02-1.19-428.56,76.85-516.28,121.04v185.38Z"/>
  <g>
    <path class="cls-3" d="M148.77,905.9c7.93,0,13.45-2.7,19.5-9.03l4.58,4.23c-7.35,13.14-19.75,21.61-37.3,21.61-26.22,0-45.64-17.64-45.64-49.55,0-36.35,25.1-54.82,54.6-54.82,36.66,0,56.7,26.11,56.7,69.64,0,53.41-37.35,92.07-94.69,102.43l-2.3-13.3c43.7-16.42,59.94-40.6,59.94-92.69,0-41.14-7.52-52.78-19.13-52.78-10.21,0-18.94,11.02-18.94,38.06,0,23.46,8.93,36.18,22.7,36.18Z"/>
    <path class="cls-3" d="M273.49,905.9c7.93,0,13.45-2.7,19.5-9.03l4.58,4.23c-7.35,13.14-19.75,21.61-37.3,21.61-26.22,0-45.64-17.64-45.64-49.55,0-36.35,25.1-54.82,54.6-54.82,36.66,0,56.7,26.11,56.7,69.64,0,53.41-37.35,92.07-94.69,102.43l-2.3-13.3c43.7-16.42,59.94-40.6,59.94-92.69,0-41.14-7.52-52.78-19.13-52.78-10.21,0-18.94,11.02-18.94,38.06,0,23.46,8.93,36.18,22.7,36.18Z"/>
  </g>
  <path class="cls-3" d="M353.82,991.32v-174.04h31.57v174.04h-31.57Z"/>
  <path class="cls-3" d="M488.09,934.3l31.46,7.27c-4.04,15.88-10.43,27.97-19.16,36.27-8.73,8.3-19.65,12.45-32.75,12.45-20.75,0-36.11-9.33-46.07-28-7.87-14.95-11.8-33.82-11.8-56.61,0-27.22,5.17-48.54,15.51-63.96,10.34-15.42,23.41-23.12,39.22-23.12,17.75,0,31.76,8.07,42.02,24.21,10.26,16.14,15.17,40.86,14.72,74.17h-79.11c.22,12.89,2.77,22.92,7.64,30.09,4.87,7.17,10.94,10.75,18.2,10.75,4.94,0,9.1-1.86,12.47-5.57,3.37-3.71,5.92-9.69,7.64-17.94Zm1.8-43.93c-.22-12.58-2.58-22.14-7.08-28.69-4.49-6.55-9.96-9.82-16.41-9.82-6.89,0-12.58,3.46-17.08,10.36-4.49,6.91-6.71,16.29-6.63,28.15h47.19Z"/>
  <path class="cls-3" d="M578.95,991.18l35.71-89.3-34.22-84.08h31.98l17.53,47.67,18.46-47.67h30.77l-33.56,82.12,36.64,91.26h-32.17l-20.14-53.71-20.33,53.71h-30.67Z"/>
  <path class="cls-3" d="M841.8,990.47v-35.45l38.39-73.97c6.3-12.08,10.96-20.66,13.99-25.74-3.15,.32-7.3,.54-12.45,.65l-36.18,.32v-37.71h84.7v32.21l-39.17,75.75-13.79,25.09c7.52-.75,12.19-1.13,13.99-1.13h41.96v39.98h-91.45Z"/>
  <path class="cls-3" d="M702.21,817.58h33.6l28.54,87.82,27.87-87.82h32.7l-42.14,119.03-7.53,21.55c-2.77,7.22-5.41,12.73-7.92,16.54-2.51,3.8-5.39,6.89-8.65,9.26-3.26,2.37-7.27,4.21-12.02,5.53-4.76,1.32-10.13,1.98-16.12,1.98s-12.02-.66-17.87-1.98l-2.81-25.62c4.94,1.01,9.4,1.51,13.37,1.51,7.34,0,12.77-2.23,16.29-6.7,3.52-4.47,6.22-10.15,8.09-17.06l-45.4-124.04Z"/>
  <text class="cls-2" transform="translate(523.52 990.3) scale(1.04 1)"><tspan x="0" y="0">.</tspan></text>
  <circle class="cls-1" cx="505.89" cy="357.02" r="328.98"/>
  <circle class="cls-5" cx="505.05" cy="354.39" r="320.91"/>
  <path class="cls-4" d="M268.43,243.99c9.91-.47,14.23-8.1,23.16-6.46-3.44,11.94-15.14,14.96-22.38,22.13-4.54,4.5-14.45,6.54-11.29,14.85,3.31,8.73,12.91,5.66,19.7,4.95,16.05-1.68,29.4-11.04,43.9-17.1,17.72-7.41,17.66-7.59,19.56,11.27,.69,6.84,.8,11.13,10.19,5.42,11.67-7.1,21.5-1.64,20.54,10.37-4.36,54.39,2.33,108.66,1.28,163.03-.35,18.32-4.67,33.72-15.6,47.81-11.2,14.44-12.03,29.39-3.17,45.35,7.35,13.23,8.9,27.4,7.11,42.49-3.37,28.31,13.94,47.7,42.91,49.34,14.61,.83,29.16,5.19,43.87,.09,9.63-3.34,13.96-9.96,6.99-17.59-33.38-36.55-35.5-82.26-38.8-127.43-3.27-44.72,.83-88.68,17.87-130.93,8.94-22.17,12.49-45.96,17.3-69.68,8.68,2.79,8.56,9.42,10.31,14.46,6.34,18.27,11.81,36.84,18.4,55.01,3.37,9.32,3.64,22.98,17.51,23.04,13.39,.06,14.54-13.5,18.88-22.46,7.98-16.46,12.73-34.38,22.58-50.01,2.96-4.69,5-12.67,11.38-11.41,7.63,1.52,5.43,10.02,6.27,15.92,3.26,22.73,5.53,45.65,9.91,68.17,8.59,44.15,7.04,88.04,1.59,132.43-4.43,36.07-14.57,70.51-24.72,105.08-4.98,16.97-1.06,22.34,16.79,21.13,9.46-.64,18.87-2.1,28.33-2.55,19.88-.96,27.95-4.59,28.2-23.83,.52-39.14,13.75-77.75,.45-117.83-8.37-25.22-2.16-53.08,2.54-79.3,7.22-40.23,13.24-80.46,11-121.43-.7-12.82,3.58-18.88,17.2-16.57,11.88,2.01,24.1,5.61,19.33-15.31-1.8-7.9,7.25-5.67,11.48-3.21,9.07,5.29,17.27,12.07,26.39,17.25,12,6.82,24.41,12.59,38.72,5.25,6.12-3.14,8.08-7.21,3.57-12.27-7.43-8.35-12.02-18.4-18.2-27.47-4.86-7.13-11.61-11.79-19.95-14.59-34.51-11.59-47.39-29.54-47.03-64.77,.25-24.69,6.06-48.68,9.09-73.01,1.48-11.85,5.89-11.36,14.04-5.92,29.14,19.47,54.58,42.93,75.57,70.76,137.86,182.85,53.62,451.59-179.38,510.51-182.67,46.19-369.08-79.45-394.11-264.35-16.96-125.25,25.06-228.14,124.37-307.62,20.7-16.57,21.22-16.23,24.94,9.59,3.5,24.33,6.04,48.73,5,73.41-1.05,24.81-15.91,41.97-40.5,45.51-12.7,1.83-24.32,5.4-33.07,18.5Z"/>
  <path class="cls-4" d="M506.1,276.87c-11.15-.68-24.26-1.76-37.4-2.17-10.34-.32-12.87-5.18-9.77-14.1,5.27-15.17,7.66-32.31,16.52-45.08,20.29-29.25,22.87-61.83,24.08-95,.87-23.82,.06-47.7-.25-71.54-.09-7.36,.06-13.47,10.25-13.5,9.42-.03,10.88,5.1,11.58,12.83,4.42,48.43,3.13,97.48,15.52,145.04,3.65,14.02,8.42,27.77,13.17,41.48,2.74,7.91,4.79,15.79,5.3,24.18,.75,12.2-3.6,18.72-17.03,17.97-9.97-.56-19.99-.11-31.98-.11Z"/>
  <path class="cls-4" d="M399.24,73.37c7.76,21.29,9.99,43.66,14.2,65.59,4.56,23.79-1.12,45.17-14.22,65.11-10.15,15.44-15.29,32.88-20.46,50.31-1.03,3.46-1.75,7.17-3.56,10.22-2.96,5-8.19,4.74-12.51,2.55-4.64-2.36-2.39-6.56-.21-9.32,15.6-19.7,12.01-43.45,13.92-65.78,3.14-36.71,8.87-72.97,15.97-109.07,.67-3.41,.36-7.47,6.88-9.6Z"/>
  <path class="cls-4" d="M608.87,161.24c1.75-15.38,3.4-30.78,5.32-46.15,.44-3.55,1.5-7.64,6.36-7.28,3.97,.29,4.4,4.01,4.75,7.04,2.09,17.94,4.35,35.87,5.98,53.86,1.58,17.49,2.48,35.05,3.67,52.57,.94,13.88,6.28,25.94,15,36.8,3.08,3.84,8.6,7.94,4.97,13.41-2.78,4.2-8.69,2.26-13.27,2.56-5.98,.39-10.76-1.85-11.43-8.07-3.82-35.46-21.78-68.23-21.36-104.74Z"/>
</svg>