<?xml version="1.0" encoding="UTF-8"?>
<svg id="Layer_1" data-name="Layer 1" xmlns="http://www.w3.org/2000/svg" viewBox="0 0 172.19 63.59">
  <defs>
    <style>
      .cls-1 {
        fill: #31103d;
        stroke: #30123c;
        stroke-miterlimit: 10;
      }

      .cls-2 {
        fill: #bd73b0;
      }

      .cls-3 {
        fill: #ffd79d;
      }

      .cls-4 {
        fill: #30123c;
      }
    </style>
  </defs>
  <g>
    <circle class="cls-1" cx="31.79" cy="31.79" r="31.29"/>
    <circle class="cls-3" cx="31.77" cy="31.77" r="30.53"/>
    <path class="cls-2" d="M9.27,21.31c.94-.04,1.35-.77,2.2-.61-.33,1.14-1.44,1.42-2.13,2.11-.43,.43-1.37,.62-1.07,1.41,.32,.83,1.23,.54,1.87,.47,1.53-.16,2.8-1.05,4.18-1.63,1.69-.7,1.68-.72,1.86,1.07,.07,.65,.08,1.06,.97,.52,1.11-.68,2.05-.16,1.95,.99-.41,5.17,.22,10.34,.12,15.51-.03,1.74-.44,3.21-1.48,4.55-1.07,1.37-1.14,2.8-.3,4.31,.7,1.26,.85,2.61,.68,4.04-.32,2.69,1.33,4.54,4.08,4.69,1.39,.08,2.77,.49,4.17,0,.92-.32,1.33-.95,.66-1.67-3.18-3.48-3.38-7.83-3.69-12.12-.31-4.25,.08-8.44,1.7-12.45,.85-2.11,1.19-4.37,1.65-6.63,.83,.27,.81,.9,.98,1.38,.6,1.74,1.12,3.5,1.75,5.23,.32,.89,.35,2.19,1.67,2.19,1.27,0,1.38-1.28,1.8-2.14,.76-1.57,1.21-3.27,2.15-4.76,.28-.45,.48-1.21,1.08-1.08,.73,.14,.52,.95,.6,1.51,.31,2.16,.53,4.34,.94,6.49,.82,4.2,.67,8.38,.15,12.6-.42,3.43-1.39,6.71-2.35,10-.47,1.61-.1,2.12,1.6,2.01,.9-.06,1.79-.2,2.69-.24,1.89-.09,2.66-.44,2.68-2.27,.05-3.72,1.31-7.4,.04-11.21-.8-2.4-.21-5.05,.24-7.54,.69-3.83,1.26-7.65,1.05-11.55-.07-1.22,.34-1.8,1.64-1.58,1.13,.19,2.29,.53,1.84-1.46-.17-.75,.69-.54,1.09-.3,.86,.5,1.64,1.15,2.51,1.64,1.14,.65,2.32,1.2,3.68,.5,.58-.3,.77-.69,.34-1.17-.71-.79-1.14-1.75-1.73-2.61-.46-.68-1.1-1.12-1.9-1.39-3.28-1.1-4.51-2.81-4.47-6.16,.02-2.35,.58-4.63,.86-6.95,.14-1.13,.56-1.08,1.34-.56,2.77,1.85,5.19,4.08,7.19,6.73,13.11,17.39,5.1,42.96-17.06,48.56C21.71,66.13,3.97,54.18,1.59,36.59-.02,24.68,3.98,14.89,13.42,7.33c1.97-1.58,2.02-1.54,2.37,.91,.33,2.31,.57,4.64,.48,6.98-.1,2.36-1.51,3.99-3.85,4.33-1.21,.17-2.31,.51-3.15,1.76Z"/>
    <path class="cls-2" d="M31.81,24.17c-1.06-.06-2.31-.17-3.56-.21-.98-.03-1.22-.49-.93-1.34,.5-1.44,.73-3.07,1.57-4.29,1.93-2.78,2.18-5.88,2.29-9.04,.08-2.27,0-4.54-.02-6.81,0-.7,0-1.28,.98-1.28,.9,0,1.03,.48,1.1,1.22,.42,4.61,.3,9.27,1.48,13.8,.35,1.33,.8,2.64,1.25,3.95,.26,.75,.46,1.5,.5,2.3,.07,1.16-.34,1.78-1.62,1.71-.95-.05-1.9-.01-3.04-.01Z"/>
    <path class="cls-2" d="M21.65,4.81c.74,2.02,.95,4.15,1.35,6.24,.43,2.26-.11,4.3-1.35,6.19-.97,1.47-1.45,3.13-1.95,4.79-.1,.33-.17,.68-.34,.97-.28,.48-.78,.45-1.19,.24-.44-.22-.23-.62-.02-.89,1.48-1.87,1.14-4.13,1.32-6.26,.3-3.49,.84-6.94,1.52-10.38,.06-.32,.03-.71,.65-.91Z"/>
  </g>
  <path class="cls-2" d="M41.59,13.17c.17-1.46,.32-2.93,.51-4.39,.04-.34,.14-.73,.6-.69,.38,.03,.42,.38,.45,.67,.2,1.71,.41,3.41,.57,5.12,.15,1.66,.24,3.33,.35,5,.09,1.32,.6,2.47,1.43,3.5,.29,.36,.82,.76,.47,1.28-.26,.4-.83,.22-1.26,.24-.57,.04-1.02-.18-1.09-.77-.36-3.37-2.07-6.49-2.03-9.96Z"/>
  <g>
    <path class="cls-4" d="M79.51,47.81c.94,0,1.59-.24,2.3-.81l.54,.38c-.87,1.17-2.33,1.93-4.41,1.93-3.1,0-5.39-1.58-5.39-4.43,0-3.25,2.97-4.9,6.45-4.9,4.33,0,6.7,2.33,6.7,6.22,0,4.77-4.41,8.22-11.19,9.15l-.27-1.19c5.16-1.47,7.08-3.63,7.08-8.28,0-3.67-.89-4.71-2.26-4.71-1.21,0-2.24,.98-2.24,3.4,0,2.1,1.05,3.23,2.68,3.23Z"/>
    <path class="cls-4" d="M94.25,47.81c.94,0,1.59-.24,2.3-.81l.54,.38c-.87,1.17-2.33,1.93-4.41,1.93-3.1,0-5.39-1.58-5.39-4.43,0-3.25,2.97-4.9,6.45-4.9,4.33,0,6.7,2.33,6.7,6.22,0,4.77-4.41,8.22-11.19,9.15l-.27-1.19c5.16-1.47,7.08-3.63,7.08-8.28,0-3.67-.89-4.71-2.26-4.71-1.21,0-2.24,.98-2.24,3.4,0,2.1,1.05,3.23,2.68,3.23Z"/>
  </g>
  <path class="cls-4" d="M103.74,55.44v-15.55h3.73v15.55h-3.73Z"/>
  <path class="cls-4" d="M119.6,50.35l3.72,.65c-.48,1.42-1.23,2.5-2.26,3.24-1.03,.74-2.32,1.11-3.87,1.11-2.45,0-4.27-.83-5.44-2.5-.93-1.34-1.39-3.02-1.39-5.06,0-2.43,.61-4.34,1.83-5.71,1.22-1.38,2.77-2.07,4.63-2.07,2.1,0,3.75,.72,4.96,2.16,1.21,1.44,1.79,3.65,1.74,6.63h-9.35c.03,1.15,.33,2.05,.9,2.69,.58,.64,1.29,.96,2.15,.96,.58,0,1.08-.17,1.47-.5,.4-.33,.7-.87,.9-1.6Zm.21-3.92c-.03-1.12-.31-1.98-.84-2.56-.53-.58-1.18-.88-1.94-.88-.81,0-1.49,.31-2.02,.93-.53,.62-.79,1.46-.78,2.51h5.58Z"/>
  <path class="cls-4" d="M130.33,55.43l4.22-7.98-4.04-7.51h3.78l2.07,4.26,2.18-4.26h3.63l-3.97,7.34,4.33,8.15h-3.8l-2.38-4.8-2.4,4.8h-3.62Z"/>
  <path class="cls-4" d="M161.39,55.36v-3.17l4.54-6.61c.74-1.08,1.3-1.85,1.65-2.3-.37,.03-.86,.05-1.47,.06l-4.27,.03v-3.37h10.01v2.88l-4.63,6.77-1.63,2.24c.89-.07,1.44-.1,1.65-.1h4.96v3.57h-10.8Z"/>
  <path class="cls-4" d="M144.9,39.92h3.97l3.37,7.84,3.29-7.84h3.86l-4.98,10.63-.89,1.92c-.33,.65-.64,1.14-.94,1.48-.3,.34-.64,.62-1.02,.83-.38,.21-.86,.38-1.42,.49-.56,.12-1.2,.18-1.9,.18s-1.42-.06-2.11-.18l-.33-2.29c.58,.09,1.11,.14,1.58,.14,.87,0,1.51-.2,1.92-.6,.42-.4,.73-.91,.96-1.52l-5.36-11.08Z"/>
  <path class="cls-4" d="M126.83,51.82c1.25,0,2.28,.77,2.29,1.72,0,.95-1.03,1.73-2.28,1.73-1.25,0-2.28-.78-2.28-1.73,0-.94,1.03-1.72,2.27-1.72Z"/>
  <g>
    <path class="cls-4" d="M85.29,9.89l4.9,.68c-.48,.95-.97,1.86-1.47,2.73h10.62v3.54c-1.19,2.54-2.66,4.87-4.4,7,2.47,3.41,5.98,5.8,10.53,7.17-1.17,1.25-2.27,2.51-3.28,3.77-4.27-2.09-7.65-4.69-10.15-7.79-3.36,3.22-7.49,5.88-12.38,7.97-.88-1-1.98-2.16-3.31-3.49,8.86-3.21,14.8-8.09,17.83-14.65h-7.7c-1.87,2.67-3.91,4.88-6.12,6.66-.86-.79-1.98-1.73-3.37-2.81,3.15-2.53,5.91-6.12,8.3-10.78Z"/>
    <path class="cls-4" d="M115.32,9.89l4.9,.68c-.48,.95-.97,1.86-1.47,2.73h10.62v3.54c-1.19,2.54-2.66,4.87-4.4,7,2.47,3.41,5.98,5.8,10.53,7.17-1.17,1.25-2.27,2.51-3.28,3.77-4.27-2.09-7.65-4.69-10.15-7.79-3.36,3.22-7.49,5.88-12.38,7.97-.88-1-1.98-2.16-3.31-3.49,8.86-3.21,14.8-8.09,17.83-14.65h-7.7c-1.87,2.67-3.91,4.88-6.12,6.66-.86-.79-1.98-1.73-3.37-2.81,3.15-2.53,5.91-6.12,8.3-10.78Z"/>
    <path class="cls-4" d="M142.66,24.16l3.78,1.72c-2.09,2.95-4.37,5.58-6.83,7.87-1.17-.94-2.27-1.73-3.28-2.35,2.39-2.14,4.5-4.55,6.33-7.24Zm6.72-8.2h4.4v4.25h10.32v3.34h-10.32v6.73c0,1.35-.35,2.37-1.06,3.07-.7,.7-1.67,1.09-2.89,1.16-1.22,.07-2.95,.11-5.18,.12-.33-1.48-.66-2.74-1-3.77,1.39,.14,2.63,.2,3.72,.2,1.33,0,1.99-.51,1.99-1.52v-6h-11.67l2.14-11.94c7.25-.12,14.36-.55,21.32-1.29l1.5,3.37c-5.77,.57-12.03,.92-18.8,1.04l-1.09,5.49h6.6v-4.25Zm9.83,8.27c1.68,1.67,3.74,4.02,6.19,7.06-1.33,.73-2.61,1.46-3.84,2.2-2.11-3.12-3.98-5.58-5.6-7.39l3.26-1.87Z"/>
  </g>
</svg>